<?xml version="1.0" encoding="UTF-8" standalone="no"?>
<!DOCTYPE svg PUBLIC "-//W3C//DTD SVG 1.1//EN"
 "http://www.w3.org/Graphics/SVG/1.1/DTD/svg11.dtd">
<!-- Generated by graphviz version 2.47.1 (20210417.1919)
 -->
<!-- Title: Tree Pages: 1 -->
<svg width="708pt" height="552pt"
 viewBox="0.00 0.00 708.00 552.00" xmlns="http://www.w3.org/2000/svg" xmlns:xlink="http://www.w3.org/1999/xlink">
<g id="graph0" class="graph" transform="scale(1 1) rotate(0) translate(4 548)">
<title>Tree</title>
<polygon fill="white" stroke="transparent" points="-4,4 -4,-548 704,-548 704,4 -4,4"/>
<!-- 0 -->
<g id="node1" class="node">
<title>0</title>
<polygon fill="#fffdfd" stroke="black" points="272,-544 114,-544 114,-461 272,-461 272,-544"/>
<text text-anchor="middle" x="193" y="-528.8" font-family="Times New Roman,serif" font-size="14.00">petal length (cm) &lt;= 2.45</text>
<text text-anchor="middle" x="193" y="-513.8" font-family="Times New Roman,serif" font-size="14.00">gini = 0.667</text>
<text text-anchor="middle" x="193" y="-498.8" font-family="Times New Roman,serif" font-size="14.00">samples = 120</text>
<text text-anchor="middle" x="193" y="-483.8" font-family="Times New Roman,serif" font-size="14.00">value = [41, 40, 39]</text>
<text text-anchor="middle" x="193" y="-468.8" font-family="Times New Roman,serif" font-size="14.00">class = setosa</text>
</g>
<!-- 1 -->
<g id="node2" class="node">
<title>1</title>
<polygon fill="#e58139" stroke="black" points="173,-417.5 61,-417.5 61,-349.5 173,-349.5 173,-417.5"/>
<text text-anchor="middle" x="117" y="-402.3" font-family="Times New Roman,serif" font-size="14.00">gini = 0.0</text>
<text text-anchor="middle" x="117" y="-387.3" font-family="Times New Roman,serif" font-size="14.00">samples = 41</text>
<text text-anchor="middle" x="117" y="-372.3" font-family="Times New Roman,serif" font-size="14.00">value = [41, 0, 0]</text>
<text text-anchor="middle" x="117" y="-357.3" font-family="Times New Roman,serif" font-size="14.00">class = setosa</text>
</g>
<!-- 0&#45;&gt;1 -->
<g id="edge1" class="edge">
<title>0&#45;&gt;1</title>
<path fill="none" stroke="black" d="M166.63,-460.91C159.32,-449.65 151.37,-437.42 144.03,-426.11"/>
<polygon fill="black" stroke="black" points="146.93,-424.15 138.54,-417.67 141.06,-427.96 146.93,-424.15"/>
<text text-anchor="middle" x="133.35" y="-438.42" font-family="Times New Roman,serif" font-size="14.00">True</text>
</g>
<!-- 2 -->
<g id="node3" class="node">
<title>2</title>
<polygon fill="#fafefc" stroke="black" points="346.5,-425 191.5,-425 191.5,-342 346.5,-342 346.5,-425"/>
<text text-anchor="middle" x="269" y="-409.8" font-family="Times New Roman,serif" font-size="14.00">petal width (cm) &lt;= 1.55</text>
<text text-anchor="middle" x="269" y="-394.8" font-family="Times New Roman,serif" font-size="14.00">gini = 0.5</text>
<text text-anchor="middle" x="269" y="-379.8" font-family="Times New Roman,serif" font-size="14.00">samples = 79</text>
<text text-anchor="middle" x="269" y="-364.8" font-family="Times New Roman,serif" font-size="14.00">value = [0, 40, 39]</text>
<text text-anchor="middle" x="269" y="-349.8" font-family="Times New Roman,serif" font-size="14.00">class = versicolor</text>
</g>
<!-- 0&#45;&gt;2 -->
<g id="edge2" class="edge">
<title>0&#45;&gt;2</title>
<path fill="none" stroke="black" d="M219.37,-460.91C225.09,-452.1 231.19,-442.7 237.1,-433.61"/>
<polygon fill="black" stroke="black" points="240.17,-435.31 242.68,-425.02 234.3,-431.5 240.17,-435.31"/>
<text text-anchor="middle" x="247.87" y="-445.78" font-family="Times New Roman,serif" font-size="14.00">False</text>
</g>
<!-- 3 -->
<g id="node4" class="node">
<title>3</title>
<polygon fill="#3ee684" stroke="black" points="261,-306 103,-306 103,-223 261,-223 261,-306"/>
<text text-anchor="middle" x="182" y="-290.8" font-family="Times New Roman,serif" font-size="14.00">petal length (cm) &lt;= 5.25</text>
<text text-anchor="middle" x="182" y="-275.8" font-family="Times New Roman,serif" font-size="14.00">gini = 0.051</text>
<text text-anchor="middle" x="182" y="-260.8" font-family="Times New Roman,serif" font-size="14.00">samples = 38</text>
<text text-anchor="middle" x="182" y="-245.8" font-family="Times New Roman,serif" font-size="14.00">value = [0, 37, 1]</text>
<text text-anchor="middle" x="182" y="-230.8" font-family="Times New Roman,serif" font-size="14.00">class = versicolor</text>
</g>
<!-- 2&#45;&gt;3 -->
<g id="edge3" class="edge">
<title>2&#45;&gt;3</title>
<path fill="none" stroke="black" d="M238.82,-341.91C232.14,-332.92 224.99,-323.32 218.1,-314.05"/>
<polygon fill="black" stroke="black" points="220.91,-311.96 212.13,-306.02 215.29,-316.13 220.91,-311.96"/>
</g>
<!-- 6 -->
<g id="node7" class="node">
<title>6</title>
<polygon fill="#8b49e7" stroke="black" points="434.5,-306 279.5,-306 279.5,-223 434.5,-223 434.5,-306"/>
<text text-anchor="middle" x="357" y="-290.8" font-family="Times New Roman,serif" font-size="14.00">petal width (cm) &lt;= 1.75</text>
<text text-anchor="middle" x="357" y="-275.8" font-family="Times New Roman,serif" font-size="14.00">gini = 0.136</text>
<text text-anchor="middle" x="357" y="-260.8" font-family="Times New Roman,serif" font-size="14.00">samples = 41</text>
<text text-anchor="middle" x="357" y="-245.8" font-family="Times New Roman,serif" font-size="14.00">value = [0, 3, 38]</text>
<text text-anchor="middle" x="357" y="-230.8" font-family="Times New Roman,serif" font-size="14.00">class = virginica</text>
</g>
<!-- 2&#45;&gt;6 -->
<g id="edge6" class="edge">
<title>2&#45;&gt;6</title>
<path fill="none" stroke="black" d="M299.53,-341.91C306.29,-332.92 313.52,-323.32 320.48,-314.05"/>
<polygon fill="black" stroke="black" points="323.31,-316.12 326.52,-306.02 317.71,-311.91 323.31,-316.12"/>
</g>
<!-- 4 -->
<g id="node5" class="node">
<title>4</title>
<polygon fill="#39e581" stroke="black" points="116,-179.5 0,-179.5 0,-111.5 116,-111.5 116,-179.5"/>
<text text-anchor="middle" x="58" y="-164.3" font-family="Times New Roman,serif" font-size="14.00">gini = 0.0</text>
<text text-anchor="middle" x="58" y="-149.3" font-family="Times New Roman,serif" font-size="14.00">samples = 37</text>
<text text-anchor="middle" x="58" y="-134.3" font-family="Times New Roman,serif" font-size="14.00">value = [0, 37, 0]</text>
<text text-anchor="middle" x="58" y="-119.3" font-family="Times New Roman,serif" font-size="14.00">class = versicolor</text>
</g>
<!-- 3&#45;&gt;4 -->
<g id="edge4" class="edge">
<title>3&#45;&gt;4</title>
<path fill="none" stroke="black" d="M138.98,-222.91C126.58,-211.21 113.07,-198.46 100.69,-186.78"/>
<polygon fill="black" stroke="black" points="102.83,-183.98 93.15,-179.67 98.02,-189.08 102.83,-183.98"/>
</g>
<!-- 5 -->
<g id="node6" class="node">
<title>5</title>
<polygon fill="#8139e5" stroke="black" points="241.5,-179.5 134.5,-179.5 134.5,-111.5 241.5,-111.5 241.5,-179.5"/>
<text text-anchor="middle" x="188" y="-164.3" font-family="Times New Roman,serif" font-size="14.00">gini = 0.0</text>
<text text-anchor="middle" x="188" y="-149.3" font-family="Times New Roman,serif" font-size="14.00">samples = 1</text>
<text text-anchor="middle" x="188" y="-134.3" font-family="Times New Roman,serif" font-size="14.00">value = [0, 0, 1]</text>
<text text-anchor="middle" x="188" y="-119.3" font-family="Times New Roman,serif" font-size="14.00">class = virginica</text>
</g>
<!-- 3&#45;&gt;5 -->
<g id="edge5" class="edge">
<title>3&#45;&gt;5</title>
<path fill="none" stroke="black" d="M184.08,-222.91C184.63,-212.2 185.22,-200.62 185.78,-189.78"/>
<polygon fill="black" stroke="black" points="189.28,-189.83 186.3,-179.67 182.29,-189.47 189.28,-189.83"/>
</g>
<!-- 7 -->
<g id="node8" class="node">
<title>7</title>
<polygon fill="#ffffff" stroke="black" points="431,-187 271,-187 271,-104 431,-104 431,-187"/>
<text text-anchor="middle" x="351" y="-171.8" font-family="Times New Roman,serif" font-size="14.00">sepal length (cm) &lt;= 5.45</text>
<text text-anchor="middle" x="351" y="-156.8" font-family="Times New Roman,serif" font-size="14.00">gini = 0.5</text>
<text text-anchor="middle" x="351" y="-141.8" font-family="Times New Roman,serif" font-size="14.00">samples = 4</text>
<text text-anchor="middle" x="351" y="-126.8" font-family="Times New Roman,serif" font-size="14.00">value = [0, 2, 2]</text>
<text text-anchor="middle" x="351" y="-111.8" font-family="Times New Roman,serif" font-size="14.00">class = versicolor</text>
</g>
<!-- 6&#45;&gt;7 -->
<g id="edge7" class="edge">
<title>6&#45;&gt;7</title>
<path fill="none" stroke="black" d="M354.92,-222.91C354.49,-214.56 354.03,-205.67 353.59,-197.02"/>
<polygon fill="black" stroke="black" points="357.09,-196.83 353.08,-187.02 350.09,-197.19 357.09,-196.83"/>
</g>
<!-- 10 -->
<g id="node11" class="node">
<title>10</title>
<polygon fill="#843ee6" stroke="black" points="607,-187 449,-187 449,-104 607,-104 607,-187"/>
<text text-anchor="middle" x="528" y="-171.8" font-family="Times New Roman,serif" font-size="14.00">petal length (cm) &lt;= 4.85</text>
<text text-anchor="middle" x="528" y="-156.8" font-family="Times New Roman,serif" font-size="14.00">gini = 0.053</text>
<text text-anchor="middle" x="528" y="-141.8" font-family="Times New Roman,serif" font-size="14.00">samples = 37</text>
<text text-anchor="middle" x="528" y="-126.8" font-family="Times New Roman,serif" font-size="14.00">value = [0, 1, 36]</text>
<text text-anchor="middle" x="528" y="-111.8" font-family="Times New Roman,serif" font-size="14.00">class = virginica</text>
</g>
<!-- 6&#45;&gt;10 -->
<g id="edge10" class="edge">
<title>6&#45;&gt;10</title>
<path fill="none" stroke="black" d="M416.33,-222.91C430.52,-213.2 445.78,-202.76 460.31,-192.81"/>
<polygon fill="black" stroke="black" points="462.5,-195.56 468.78,-187.02 458.55,-189.78 462.5,-195.56"/>
</g>
<!-- 8 -->
<g id="node9" class="node">
<title>8</title>
<polygon fill="#8139e5" stroke="black" points="286.5,-68 179.5,-68 179.5,0 286.5,0 286.5,-68"/>
<text text-anchor="middle" x="233" y="-52.8" font-family="Times New Roman,serif" font-size="14.00">gini = 0.0</text>
<text text-anchor="middle" x="233" y="-37.8" font-family="Times New Roman,serif" font-size="14.00">samples = 1</text>
<text text-anchor="middle" x="233" y="-22.8" font-family="Times New Roman,serif" font-size="14.00">value = [0, 0, 1]</text>
<text text-anchor="middle" x="233" y="-7.8" font-family="Times New Roman,serif" font-size="14.00">class = virginica</text>
</g>
<!-- 7&#45;&gt;8 -->
<g id="edge8" class="edge">
<title>7&#45;&gt;8</title>
<path fill="none" stroke="black" d="M307.06,-103.73C297.04,-94.42 286.39,-84.54 276.39,-75.26"/>
<polygon fill="black" stroke="black" points="278.6,-72.54 268.88,-68.3 273.83,-77.67 278.6,-72.54"/>
</g>
<!-- 9 -->
<g id="node10" class="node">
<title>9</title>
<polygon fill="#9cf2c0" stroke="black" points="421,-68 305,-68 305,0 421,0 421,-68"/>
<text text-anchor="middle" x="363" y="-52.8" font-family="Times New Roman,serif" font-size="14.00">gini = 0.444</text>
<text text-anchor="middle" x="363" y="-37.8" font-family="Times New Roman,serif" font-size="14.00">samples = 3</text>
<text text-anchor="middle" x="363" y="-22.8" font-family="Times New Roman,serif" font-size="14.00">value = [0, 2, 1]</text>
<text text-anchor="middle" x="363" y="-7.8" font-family="Times New Roman,serif" font-size="14.00">class = versicolor</text>
</g>
<!-- 7&#45;&gt;9 -->
<g id="edge9" class="edge">
<title>7&#45;&gt;9</title>
<path fill="none" stroke="black" d="M355.47,-103.73C356.38,-95.43 357.34,-86.67 358.26,-78.28"/>
<polygon fill="black" stroke="black" points="361.74,-78.62 359.35,-68.3 354.78,-77.86 361.74,-78.62"/>
</g>
<!-- 11 -->
<g id="node12" class="node">
<title>11</title>
<polygon fill="#c09cf2" stroke="black" points="569.5,-68 462.5,-68 462.5,0 569.5,0 569.5,-68"/>
<text text-anchor="middle" x="516" y="-52.8" font-family="Times New Roman,serif" font-size="14.00">gini = 0.444</text>
<text text-anchor="middle" x="516" y="-37.8" font-family="Times New Roman,serif" font-size="14.00">samples = 3</text>
<text text-anchor="middle" x="516" y="-22.8" font-family="Times New Roman,serif" font-size="14.00">value = [0, 1, 2]</text>
<text text-anchor="middle" x="516" y="-7.8" font-family="Times New Roman,serif" font-size="14.00">class = virginica</text>
</g>
<!-- 10&#45;&gt;11 -->
<g id="edge11" class="edge">
<title>10&#45;&gt;11</title>
<path fill="none" stroke="black" d="M523.53,-103.73C522.62,-95.43 521.66,-86.67 520.74,-78.28"/>
<polygon fill="black" stroke="black" points="524.22,-77.86 519.65,-68.3 517.26,-78.62 524.22,-77.86"/>
</g>
<!-- 12 -->
<g id="node13" class="node">
<title>12</title>
<polygon fill="#8139e5" stroke="black" points="700,-68 588,-68 588,0 700,0 700,-68"/>
<text text-anchor="middle" x="644" y="-52.8" font-family="Times New Roman,serif" font-size="14.00">gini = 0.0</text>
<text text-anchor="middle" x="644" y="-37.8" font-family="Times New Roman,serif" font-size="14.00">samples = 34</text>
<text text-anchor="middle" x="644" y="-22.8" font-family="Times New Roman,serif" font-size="14.00">value = [0, 0, 34]</text>
<text text-anchor="middle" x="644" y="-7.8" font-family="Times New Roman,serif" font-size="14.00">class = virginica</text>
</g>
<!-- 10&#45;&gt;12 -->
<g id="edge12" class="edge">
<title>10&#45;&gt;12</title>
<path fill="none" stroke="black" d="M571.19,-103.73C581.05,-94.42 591.52,-84.54 601.35,-75.26"/>
<polygon fill="black" stroke="black" points="603.85,-77.71 608.72,-68.3 599.05,-72.62 603.85,-77.71"/>
</g>
</g>
</svg>
