<?xml version="1.0" encoding="UTF-8" standalone="no"?>
<!DOCTYPE svg PUBLIC "-//W3C//DTD SVG 1.1//EN"
 "http://www.w3.org/Graphics/SVG/1.1/DTD/svg11.dtd">
<!-- Generated by graphviz version 2.47.1 (20210417.1919)
 -->
<!-- Title: Tree Pages: 1 -->
<svg width="540pt" height="433pt"
 viewBox="0.00 0.00 540.00 433.00" xmlns="http://www.w3.org/2000/svg" xmlns:xlink="http://www.w3.org/1999/xlink">
<g id="graph0" class="graph" transform="scale(1 1) rotate(0) translate(4 429)">
<title>Tree</title>
<polygon fill="white" stroke="transparent" points="-4,4 -4,-429 536,-429 536,4 -4,4"/>
<!-- 0 -->
<g id="node1" class="node">
<title>0</title>
<polygon fill="#fffdfd" stroke="black" points="272,-425 114,-425 114,-342 272,-342 272,-425"/>
<text text-anchor="middle" x="193" y="-409.8" font-family="Times New Roman,serif" font-size="14.00">petal length (cm) &lt;= 2.45</text>
<text text-anchor="middle" x="193" y="-394.8" font-family="Times New Roman,serif" font-size="14.00">gini = 0.667</text>
<text text-anchor="middle" x="193" y="-379.8" font-family="Times New Roman,serif" font-size="14.00">samples = 120</text>
<text text-anchor="middle" x="193" y="-364.8" font-family="Times New Roman,serif" font-size="14.00">value = [41, 40, 39]</text>
<text text-anchor="middle" x="193" y="-349.8" font-family="Times New Roman,serif" font-size="14.00">class = setosa</text>
</g>
<!-- 1 -->
<g id="node2" class="node">
<title>1</title>
<polygon fill="#e58139" stroke="black" points="173,-298.5 61,-298.5 61,-230.5 173,-230.5 173,-298.5"/>
<text text-anchor="middle" x="117" y="-283.3" font-family="Times New Roman,serif" font-size="14.00">gini = 0.0</text>
<text text-anchor="middle" x="117" y="-268.3" font-family="Times New Roman,serif" font-size="14.00">samples = 41</text>
<text text-anchor="middle" x="117" y="-253.3" font-family="Times New Roman,serif" font-size="14.00">value = [41, 0, 0]</text>
<text text-anchor="middle" x="117" y="-238.3" font-family="Times New Roman,serif" font-size="14.00">class = setosa</text>
</g>
<!-- 0&#45;&gt;1 -->
<g id="edge1" class="edge">
<title>0&#45;&gt;1</title>
<path fill="none" stroke="black" d="M166.63,-341.91C159.32,-330.65 151.37,-318.42 144.03,-307.11"/>
<polygon fill="black" stroke="black" points="146.93,-305.15 138.54,-298.67 141.06,-308.96 146.93,-305.15"/>
<text text-anchor="middle" x="133.35" y="-319.42" font-family="Times New Roman,serif" font-size="14.00">True</text>
</g>
<!-- 2 -->
<g id="node3" class="node">
<title>2</title>
<polygon fill="#fafefc" stroke="black" points="346.5,-306 191.5,-306 191.5,-223 346.5,-223 346.5,-306"/>
<text text-anchor="middle" x="269" y="-290.8" font-family="Times New Roman,serif" font-size="14.00">petal width (cm) &lt;= 1.55</text>
<text text-anchor="middle" x="269" y="-275.8" font-family="Times New Roman,serif" font-size="14.00">gini = 0.5</text>
<text text-anchor="middle" x="269" y="-260.8" font-family="Times New Roman,serif" font-size="14.00">samples = 79</text>
<text text-anchor="middle" x="269" y="-245.8" font-family="Times New Roman,serif" font-size="14.00">value = [0, 40, 39]</text>
<text text-anchor="middle" x="269" y="-230.8" font-family="Times New Roman,serif" font-size="14.00">class = versicolor</text>
</g>
<!-- 0&#45;&gt;2 -->
<g id="edge2" class="edge">
<title>0&#45;&gt;2</title>
<path fill="none" stroke="black" d="M219.37,-341.91C225.09,-333.1 231.19,-323.7 237.1,-314.61"/>
<polygon fill="black" stroke="black" points="240.17,-316.31 242.68,-306.02 234.3,-312.5 240.17,-316.31"/>
<text text-anchor="middle" x="247.87" y="-326.78" font-family="Times New Roman,serif" font-size="14.00">False</text>
</g>
<!-- 3 -->
<g id="node4" class="node">
<title>3</title>
<polygon fill="#3ee684" stroke="black" points="260,-187 102,-187 102,-104 260,-104 260,-187"/>
<text text-anchor="middle" x="181" y="-171.8" font-family="Times New Roman,serif" font-size="14.00">petal length (cm) &lt;= 4.55</text>
<text text-anchor="middle" x="181" y="-156.8" font-family="Times New Roman,serif" font-size="14.00">gini = 0.051</text>
<text text-anchor="middle" x="181" y="-141.8" font-family="Times New Roman,serif" font-size="14.00">samples = 38</text>
<text text-anchor="middle" x="181" y="-126.8" font-family="Times New Roman,serif" font-size="14.00">value = [0, 37, 1]</text>
<text text-anchor="middle" x="181" y="-111.8" font-family="Times New Roman,serif" font-size="14.00">class = versicolor</text>
</g>
<!-- 2&#45;&gt;3 -->
<g id="edge3" class="edge">
<title>2&#45;&gt;3</title>
<path fill="none" stroke="black" d="M238.47,-222.91C231.71,-213.92 224.48,-204.32 217.52,-195.05"/>
<polygon fill="black" stroke="black" points="220.29,-192.91 211.48,-187.02 214.69,-197.12 220.29,-192.91"/>
</g>
<!-- 6 -->
<g id="node7" class="node">
<title>6</title>
<polygon fill="#8b49e7" stroke="black" points="436,-187 278,-187 278,-104 436,-104 436,-187"/>
<text text-anchor="middle" x="357" y="-171.8" font-family="Times New Roman,serif" font-size="14.00">petal length (cm) &lt;= 5.15</text>
<text text-anchor="middle" x="357" y="-156.8" font-family="Times New Roman,serif" font-size="14.00">gini = 0.136</text>
<text text-anchor="middle" x="357" y="-141.8" font-family="Times New Roman,serif" font-size="14.00">samples = 41</text>
<text text-anchor="middle" x="357" y="-126.8" font-family="Times New Roman,serif" font-size="14.00">value = [0, 3, 38]</text>
<text text-anchor="middle" x="357" y="-111.8" font-family="Times New Roman,serif" font-size="14.00">class = virginica</text>
</g>
<!-- 2&#45;&gt;6 -->
<g id="edge6" class="edge">
<title>2&#45;&gt;6</title>
<path fill="none" stroke="black" d="M299.53,-222.91C306.29,-213.92 313.52,-204.32 320.48,-195.05"/>
<polygon fill="black" stroke="black" points="323.31,-197.12 326.52,-187.02 317.71,-192.91 323.31,-197.12"/>
</g>
<!-- 4 -->
<g id="node5" class="node">
<title>4</title>
<polygon fill="#39e581" stroke="black" points="116,-68 0,-68 0,0 116,0 116,-68"/>
<text text-anchor="middle" x="58" y="-52.8" font-family="Times New Roman,serif" font-size="14.00">gini = 0.0</text>
<text text-anchor="middle" x="58" y="-37.8" font-family="Times New Roman,serif" font-size="14.00">samples = 28</text>
<text text-anchor="middle" x="58" y="-22.8" font-family="Times New Roman,serif" font-size="14.00">value = [0, 28, 0]</text>
<text text-anchor="middle" x="58" y="-7.8" font-family="Times New Roman,serif" font-size="14.00">class = versicolor</text>
</g>
<!-- 3&#45;&gt;4 -->
<g id="edge4" class="edge">
<title>3&#45;&gt;4</title>
<path fill="none" stroke="black" d="M135.2,-103.73C124.65,-94.33 113.43,-84.35 102.92,-74.99"/>
<polygon fill="black" stroke="black" points="105.2,-72.33 95.41,-68.3 100.55,-77.56 105.2,-72.33"/>
</g>
<!-- 5 -->
<g id="node6" class="node">
<title>5</title>
<polygon fill="#4fe88f" stroke="black" points="250,-68 134,-68 134,0 250,0 250,-68"/>
<text text-anchor="middle" x="192" y="-52.8" font-family="Times New Roman,serif" font-size="14.00">gini = 0.18</text>
<text text-anchor="middle" x="192" y="-37.8" font-family="Times New Roman,serif" font-size="14.00">samples = 10</text>
<text text-anchor="middle" x="192" y="-22.8" font-family="Times New Roman,serif" font-size="14.00">value = [0, 9, 1]</text>
<text text-anchor="middle" x="192" y="-7.8" font-family="Times New Roman,serif" font-size="14.00">class = versicolor</text>
</g>
<!-- 3&#45;&gt;5 -->
<g id="edge5" class="edge">
<title>3&#45;&gt;5</title>
<path fill="none" stroke="black" d="M185.1,-103.73C185.93,-95.43 186.81,-86.67 187.65,-78.28"/>
<polygon fill="black" stroke="black" points="191.14,-78.6 188.65,-68.3 184.17,-77.9 191.14,-78.6"/>
</g>
<!-- 7 -->
<g id="node8" class="node">
<title>7</title>
<polygon fill="#a774ed" stroke="black" points="402,-68 290,-68 290,0 402,0 402,-68"/>
<text text-anchor="middle" x="346" y="-52.8" font-family="Times New Roman,serif" font-size="14.00">gini = 0.355</text>
<text text-anchor="middle" x="346" y="-37.8" font-family="Times New Roman,serif" font-size="14.00">samples = 13</text>
<text text-anchor="middle" x="346" y="-22.8" font-family="Times New Roman,serif" font-size="14.00">value = [0, 3, 10]</text>
<text text-anchor="middle" x="346" y="-7.8" font-family="Times New Roman,serif" font-size="14.00">class = virginica</text>
</g>
<!-- 6&#45;&gt;7 -->
<g id="edge7" class="edge">
<title>6&#45;&gt;7</title>
<path fill="none" stroke="black" d="M352.9,-103.73C352.07,-95.43 351.19,-86.67 350.35,-78.28"/>
<polygon fill="black" stroke="black" points="353.83,-77.9 349.35,-68.3 346.86,-78.6 353.83,-77.9"/>
</g>
<!-- 8 -->
<g id="node9" class="node">
<title>8</title>
<polygon fill="#8139e5" stroke="black" points="532,-68 420,-68 420,0 532,0 532,-68"/>
<text text-anchor="middle" x="476" y="-52.8" font-family="Times New Roman,serif" font-size="14.00">gini = 0.0</text>
<text text-anchor="middle" x="476" y="-37.8" font-family="Times New Roman,serif" font-size="14.00">samples = 28</text>
<text text-anchor="middle" x="476" y="-22.8" font-family="Times New Roman,serif" font-size="14.00">value = [0, 0, 28]</text>
<text text-anchor="middle" x="476" y="-7.8" font-family="Times New Roman,serif" font-size="14.00">class = virginica</text>
</g>
<!-- 6&#45;&gt;8 -->
<g id="edge8" class="edge">
<title>6&#45;&gt;8</title>
<path fill="none" stroke="black" d="M401.31,-103.73C411.42,-94.42 422.16,-84.54 432.25,-75.26"/>
<polygon fill="black" stroke="black" points="434.82,-77.65 439.81,-68.3 430.08,-72.5 434.82,-77.65"/>
</g>
</g>
</svg>
