<?xml version="1.0" encoding="UTF-8" standalone="no"?>
<!DOCTYPE svg PUBLIC "-//W3C//DTD SVG 1.1//EN"
 "http://www.w3.org/Graphics/SVG/1.1/DTD/svg11.dtd">
<!-- Generated by graphviz version 2.47.1 (20210417.1919)
 -->
<!-- Title: Tree Pages: 1 -->
<svg width="338pt" height="314pt"
 viewBox="0.00 0.00 338.00 314.00" xmlns="http://www.w3.org/2000/svg" xmlns:xlink="http://www.w3.org/1999/xlink">
<g id="graph0" class="graph" transform="scale(1 1) rotate(0) translate(4 310)">
<title>Tree</title>
<polygon fill="white" stroke="transparent" points="-4,4 -4,-310 334,-310 334,4 -4,4"/>
<!-- 0 -->
<g id="node1" class="node">
<title>0</title>
<polygon fill="#fffdfd" stroke="black" points="211,-306 53,-306 53,-223 211,-223 211,-306"/>
<text text-anchor="middle" x="132" y="-290.8" font-family="Times New Roman,serif" font-size="14.00">petal length (cm) &lt;= 2.45</text>
<text text-anchor="middle" x="132" y="-275.8" font-family="Times New Roman,serif" font-size="14.00">gini = 0.667</text>
<text text-anchor="middle" x="132" y="-260.8" font-family="Times New Roman,serif" font-size="14.00">samples = 120</text>
<text text-anchor="middle" x="132" y="-245.8" font-family="Times New Roman,serif" font-size="14.00">value = [41, 40, 39]</text>
<text text-anchor="middle" x="132" y="-230.8" font-family="Times New Roman,serif" font-size="14.00">class = setosa</text>
</g>
<!-- 1 -->
<g id="node2" class="node">
<title>1</title>
<polygon fill="#e58139" stroke="black" points="112,-179.5 0,-179.5 0,-111.5 112,-111.5 112,-179.5"/>
<text text-anchor="middle" x="56" y="-164.3" font-family="Times New Roman,serif" font-size="14.00">gini = 0.0</text>
<text text-anchor="middle" x="56" y="-149.3" font-family="Times New Roman,serif" font-size="14.00">samples = 41</text>
<text text-anchor="middle" x="56" y="-134.3" font-family="Times New Roman,serif" font-size="14.00">value = [41, 0, 0]</text>
<text text-anchor="middle" x="56" y="-119.3" font-family="Times New Roman,serif" font-size="14.00">class = setosa</text>
</g>
<!-- 0&#45;&gt;1 -->
<g id="edge1" class="edge">
<title>0&#45;&gt;1</title>
<path fill="none" stroke="black" d="M105.63,-222.91C98.32,-211.65 90.37,-199.42 83.03,-188.11"/>
<polygon fill="black" stroke="black" points="85.93,-186.15 77.54,-179.67 80.06,-189.96 85.93,-186.15"/>
<text text-anchor="middle" x="72.35" y="-200.42" font-family="Times New Roman,serif" font-size="14.00">True</text>
</g>
<!-- 2 -->
<g id="node3" class="node">
<title>2</title>
<polygon fill="#fafefc" stroke="black" points="285.5,-187 130.5,-187 130.5,-104 285.5,-104 285.5,-187"/>
<text text-anchor="middle" x="208" y="-171.8" font-family="Times New Roman,serif" font-size="14.00">petal width (cm) &lt;= 1.55</text>
<text text-anchor="middle" x="208" y="-156.8" font-family="Times New Roman,serif" font-size="14.00">gini = 0.5</text>
<text text-anchor="middle" x="208" y="-141.8" font-family="Times New Roman,serif" font-size="14.00">samples = 79</text>
<text text-anchor="middle" x="208" y="-126.8" font-family="Times New Roman,serif" font-size="14.00">value = [0, 40, 39]</text>
<text text-anchor="middle" x="208" y="-111.8" font-family="Times New Roman,serif" font-size="14.00">class = versicolor</text>
</g>
<!-- 0&#45;&gt;2 -->
<g id="edge2" class="edge">
<title>0&#45;&gt;2</title>
<path fill="none" stroke="black" d="M158.37,-222.91C164.09,-214.1 170.19,-204.7 176.1,-195.61"/>
<polygon fill="black" stroke="black" points="179.17,-197.31 181.68,-187.02 173.3,-193.5 179.17,-197.31"/>
<text text-anchor="middle" x="186.87" y="-207.78" font-family="Times New Roman,serif" font-size="14.00">False</text>
</g>
<!-- 3 -->
<g id="node4" class="node">
<title>3</title>
<polygon fill="#3ee684" stroke="black" points="200,-68 84,-68 84,0 200,0 200,-68"/>
<text text-anchor="middle" x="142" y="-52.8" font-family="Times New Roman,serif" font-size="14.00">gini = 0.051</text>
<text text-anchor="middle" x="142" y="-37.8" font-family="Times New Roman,serif" font-size="14.00">samples = 38</text>
<text text-anchor="middle" x="142" y="-22.8" font-family="Times New Roman,serif" font-size="14.00">value = [0, 37, 1]</text>
<text text-anchor="middle" x="142" y="-7.8" font-family="Times New Roman,serif" font-size="14.00">class = versicolor</text>
</g>
<!-- 2&#45;&gt;3 -->
<g id="edge3" class="edge">
<title>2&#45;&gt;3</title>
<path fill="none" stroke="black" d="M183.42,-103.73C178.15,-94.97 172.56,-85.7 167.26,-76.91"/>
<polygon fill="black" stroke="black" points="170.23,-75.06 162.07,-68.3 164.24,-78.67 170.23,-75.06"/>
</g>
<!-- 4 -->
<g id="node5" class="node">
<title>4</title>
<polygon fill="#8b49e7" stroke="black" points="330,-68 218,-68 218,0 330,0 330,-68"/>
<text text-anchor="middle" x="274" y="-52.8" font-family="Times New Roman,serif" font-size="14.00">gini = 0.136</text>
<text text-anchor="middle" x="274" y="-37.8" font-family="Times New Roman,serif" font-size="14.00">samples = 41</text>
<text text-anchor="middle" x="274" y="-22.8" font-family="Times New Roman,serif" font-size="14.00">value = [0, 3, 38]</text>
<text text-anchor="middle" x="274" y="-7.8" font-family="Times New Roman,serif" font-size="14.00">class = virginica</text>
</g>
<!-- 2&#45;&gt;4 -->
<g id="edge4" class="edge">
<title>2&#45;&gt;4</title>
<path fill="none" stroke="black" d="M232.58,-103.73C237.85,-94.97 243.44,-85.7 248.74,-76.91"/>
<polygon fill="black" stroke="black" points="251.76,-78.67 253.93,-68.3 245.77,-75.06 251.76,-78.67"/>
</g>
</g>
</svg>
