<?xml version="1.0" encoding="UTF-8" standalone="no"?>
<!DOCTYPE svg PUBLIC "-//W3C//DTD SVG 1.1//EN"
 "http://www.w3.org/Graphics/SVG/1.1/DTD/svg11.dtd">
<!-- Generated by graphviz version 2.47.1 (20210417.1919)
 -->
<!-- Pages: 1 -->
<svg width="1369pt" height="305pt"
 viewBox="0.00 0.00 1368.94 305.00" xmlns="http://www.w3.org/2000/svg" xmlns:xlink="http://www.w3.org/1999/xlink">
<g id="graph0" class="graph" transform="scale(1 1) rotate(0) translate(4 301)">
<polygon fill="white" stroke="transparent" points="-4,4 -4,-301 1364.94,-301 1364.94,4 -4,4"/>
<!-- 0 -->
<g id="node1" class="node">
<title>0</title>
<ellipse fill="none" stroke="black" cx="630.39" cy="-279" rx="69.59" ry="18"/>
<text text-anchor="middle" x="630.39" y="-275.3" font-family="Times New Roman,serif" font-size="14.00">f20&lt;16.7950001</text>
</g>
<!-- 1 -->
<g id="node2" class="node">
<title>1</title>
<ellipse fill="none" stroke="black" cx="457.39" cy="-192" rx="74.19" ry="18"/>
<text text-anchor="middle" x="457.39" y="-188.3" font-family="Times New Roman,serif" font-size="14.00">f27&lt;0.142349988</text>
</g>
<!-- 0&#45;&gt;1 -->
<g id="edge1" class="edge">
<title>0&#45;&gt;1</title>
<path fill="none" stroke="#0000ff" d="M599.46,-262.8C571.1,-248.87 528.92,-228.14 497.88,-212.89"/>
<polygon fill="#0000ff" stroke="#0000ff" points="499.16,-209.62 488.64,-208.35 496.07,-215.9 499.16,-209.62"/>
<text text-anchor="middle" x="588.89" y="-231.8" font-family="Times New Roman,serif" font-size="14.00">yes, missing</text>
</g>
<!-- 2 -->
<g id="node3" class="node">
<title>2</title>
<ellipse fill="none" stroke="black" cx="835.39" cy="-192" rx="65.79" ry="18"/>
<text text-anchor="middle" x="835.39" y="-188.3" font-family="Times New Roman,serif" font-size="14.00">f1&lt;15.8199997</text>
</g>
<!-- 0&#45;&gt;2 -->
<g id="edge2" class="edge">
<title>0&#45;&gt;2</title>
<path fill="none" stroke="#ff0000" d="M665.63,-263.39C700.31,-249.01 753.38,-227 790.94,-211.43"/>
<polygon fill="#ff0000" stroke="#ff0000" points="792.72,-214.48 800.61,-207.42 790.03,-208.02 792.72,-214.48"/>
<text text-anchor="middle" x="752.89" y="-231.8" font-family="Times New Roman,serif" font-size="14.00">no</text>
</g>
<!-- 3 -->
<g id="node4" class="node">
<title>3</title>
<ellipse fill="none" stroke="black" cx="248.39" cy="-105" rx="74.19" ry="18"/>
<text text-anchor="middle" x="248.39" y="-101.3" font-family="Times New Roman,serif" font-size="14.00">f10&lt;0.625550032</text>
</g>
<!-- 1&#45;&gt;3 -->
<g id="edge3" class="edge">
<title>1&#45;&gt;3</title>
<path fill="none" stroke="#0000ff" d="M420.99,-176.19C385.73,-161.86 332.16,-140.07 294.06,-124.57"/>
<polygon fill="#0000ff" stroke="#0000ff" points="295.31,-121.3 284.73,-120.78 292.68,-127.79 295.31,-121.3"/>
<text text-anchor="middle" x="400.89" y="-144.8" font-family="Times New Roman,serif" font-size="14.00">yes, missing</text>
</g>
<!-- 4 -->
<g id="node5" class="node">
<title>4</title>
<ellipse fill="none" stroke="black" cx="457.39" cy="-105" rx="65.79" ry="18"/>
<text text-anchor="middle" x="457.39" y="-101.3" font-family="Times New Roman,serif" font-size="14.00">f1&lt;20.2999992</text>
</g>
<!-- 1&#45;&gt;4 -->
<g id="edge4" class="edge">
<title>1&#45;&gt;4</title>
<path fill="none" stroke="#ff0000" d="M457.39,-173.8C457.39,-162.16 457.39,-146.55 457.39,-133.24"/>
<polygon fill="#ff0000" stroke="#ff0000" points="460.89,-133.18 457.39,-123.18 453.89,-133.18 460.89,-133.18"/>
<text text-anchor="middle" x="464.89" y="-144.8" font-family="Times New Roman,serif" font-size="14.00">no</text>
</g>
<!-- 5 -->
<g id="node10" class="node">
<title>5</title>
<ellipse fill="none" stroke="black" cx="835.39" cy="-105" rx="69.59" ry="18"/>
<text text-anchor="middle" x="835.39" y="-101.3" font-family="Times New Roman,serif" font-size="14.00">f5&lt;0.113710001</text>
</g>
<!-- 2&#45;&gt;5 -->
<g id="edge9" class="edge">
<title>2&#45;&gt;5</title>
<path fill="none" stroke="#0000ff" d="M835.39,-173.8C835.39,-162.16 835.39,-146.55 835.39,-133.24"/>
<polygon fill="#0000ff" stroke="#0000ff" points="838.89,-133.18 835.39,-123.18 831.89,-133.18 838.89,-133.18"/>
<text text-anchor="middle" x="869.89" y="-144.8" font-family="Times New Roman,serif" font-size="14.00">yes, missing</text>
</g>
<!-- 6 -->
<g id="node11" class="node">
<title>6</title>
<ellipse fill="none" stroke="black" cx="1121.39" cy="-105" rx="74.19" ry="18"/>
<text text-anchor="middle" x="1121.39" y="-101.3" font-family="Times New Roman,serif" font-size="14.00">f26&lt;0.190699995</text>
</g>
<!-- 2&#45;&gt;6 -->
<g id="edge10" class="edge">
<title>2&#45;&gt;6</title>
<path fill="none" stroke="#ff0000" d="M878.21,-178.27C928.38,-163.36 1011.62,-138.63 1066.49,-122.32"/>
<polygon fill="#ff0000" stroke="#ff0000" points="1067.81,-125.58 1076.39,-119.37 1065.81,-118.87 1067.81,-125.58"/>
<text text-anchor="middle" x="1003.89" y="-144.8" font-family="Times New Roman,serif" font-size="14.00">no</text>
</g>
<!-- 7 -->
<g id="node6" class="node">
<title>7</title>
<ellipse fill="none" stroke="black" cx="75.39" cy="-18" rx="75.29" ry="18"/>
<text text-anchor="middle" x="75.39" y="-14.3" font-family="Times New Roman,serif" font-size="14.00">leaf=0.191044778</text>
</g>
<!-- 3&#45;&gt;7 -->
<g id="edge5" class="edge">
<title>3&#45;&gt;7</title>
<path fill="none" stroke="#0000ff" d="M216,-88.61C203.31,-82.54 188.65,-75.49 175.39,-69 155.65,-59.33 133.8,-48.43 115.58,-39.28"/>
<polygon fill="#0000ff" stroke="#0000ff" points="116.91,-36.04 106.41,-34.67 113.77,-42.29 116.91,-36.04"/>
<text text-anchor="middle" x="209.89" y="-57.8" font-family="Times New Roman,serif" font-size="14.00">yes, missing</text>
</g>
<!-- 8 -->
<g id="node7" class="node">
<title>8</title>
<ellipse fill="none" stroke="black" cx="248.39" cy="-18" rx="79.09" ry="18"/>
<text text-anchor="middle" x="248.39" y="-14.3" font-family="Times New Roman,serif" font-size="14.00">leaf=0.0222222228</text>
</g>
<!-- 3&#45;&gt;8 -->
<g id="edge6" class="edge">
<title>3&#45;&gt;8</title>
<path fill="none" stroke="#ff0000" d="M248.39,-86.8C248.39,-75.16 248.39,-59.55 248.39,-46.24"/>
<polygon fill="#ff0000" stroke="#ff0000" points="251.89,-46.18 248.39,-36.18 244.89,-46.18 251.89,-46.18"/>
<text text-anchor="middle" x="255.89" y="-57.8" font-family="Times New Roman,serif" font-size="14.00">no</text>
</g>
<!-- 9 -->
<g id="node8" class="node">
<title>9</title>
<ellipse fill="none" stroke="black" cx="425.39" cy="-18" rx="79.09" ry="18"/>
<text text-anchor="middle" x="425.39" y="-14.3" font-family="Times New Roman,serif" font-size="14.00">leaf=0.0400000028</text>
</g>
<!-- 4&#45;&gt;9 -->
<g id="edge7" class="edge">
<title>4&#45;&gt;9</title>
<path fill="none" stroke="#0000ff" d="M450.92,-86.8C446.49,-75.05 440.54,-59.24 435.5,-45.84"/>
<polygon fill="#0000ff" stroke="#0000ff" points="438.66,-44.3 431.86,-36.18 432.11,-46.77 438.66,-44.3"/>
<text text-anchor="middle" x="477.89" y="-57.8" font-family="Times New Roman,serif" font-size="14.00">yes, missing</text>
</g>
<!-- 10 -->
<g id="node9" class="node">
<title>10</title>
<ellipse fill="none" stroke="black" cx="600.39" cy="-18" rx="77.99" ry="18"/>
<text text-anchor="middle" x="600.39" y="-14.3" font-family="Times New Roman,serif" font-size="14.00">leaf=&#45;0.160000011</text>
</g>
<!-- 4&#45;&gt;10 -->
<g id="edge8" class="edge">
<title>4&#45;&gt;10</title>
<path fill="none" stroke="#ff0000" d="M483.83,-88.33C494.01,-82.29 505.75,-75.33 516.39,-69 532.22,-59.59 549.72,-49.18 564.63,-40.3"/>
<polygon fill="#ff0000" stroke="#ff0000" points="566.74,-43.12 573.54,-35 563.16,-37.11 566.74,-43.12"/>
<text text-anchor="middle" x="547.89" y="-57.8" font-family="Times New Roman,serif" font-size="14.00">no</text>
</g>
<!-- 11 -->
<g id="node12" class="node">
<title>11</title>
<ellipse fill="none" stroke="black" cx="771.39" cy="-18" rx="75.29" ry="18"/>
<text text-anchor="middle" x="771.39" y="-14.3" font-family="Times New Roman,serif" font-size="14.00">leaf=0.111111119</text>
</g>
<!-- 5&#45;&gt;11 -->
<g id="edge11" class="edge">
<title>5&#45;&gt;11</title>
<path fill="none" stroke="#0000ff" d="M822.75,-87.21C813.46,-74.87 800.68,-57.89 790.19,-43.97"/>
<polygon fill="#0000ff" stroke="#0000ff" points="792.82,-41.64 784.01,-35.76 787.23,-45.85 792.82,-41.64"/>
<text text-anchor="middle" x="841.89" y="-57.8" font-family="Times New Roman,serif" font-size="14.00">yes, missing</text>
</g>
<!-- 12 -->
<g id="node13" class="node">
<title>12</title>
<ellipse fill="none" stroke="black" cx="942.39" cy="-18" rx="77.99" ry="18"/>
<text text-anchor="middle" x="942.39" y="-14.3" font-family="Times New Roman,serif" font-size="14.00">leaf=&#45;0.111111119</text>
</g>
<!-- 5&#45;&gt;12 -->
<g id="edge12" class="edge">
<title>5&#45;&gt;12</title>
<path fill="none" stroke="#ff0000" d="M856.52,-87.69C864.07,-81.83 872.63,-75.14 880.39,-69 891.43,-60.26 903.49,-50.57 914.02,-42.06"/>
<polygon fill="#ff0000" stroke="#ff0000" points="916.51,-44.54 922.08,-35.53 912.11,-39.1 916.51,-44.54"/>
<text text-anchor="middle" x="905.89" y="-57.8" font-family="Times New Roman,serif" font-size="14.00">no</text>
</g>
<!-- 13 -->
<g id="node14" class="node">
<title>13</title>
<ellipse fill="none" stroke="black" cx="1121.39" cy="-18" rx="82.59" ry="18"/>
<text text-anchor="middle" x="1121.39" y="-14.3" font-family="Times New Roman,serif" font-size="14.00">leaf=&#45;0.0222222228</text>
</g>
<!-- 6&#45;&gt;13 -->
<g id="edge13" class="edge">
<title>6&#45;&gt;13</title>
<path fill="none" stroke="#0000ff" d="M1121.39,-86.8C1121.39,-75.16 1121.39,-59.55 1121.39,-46.24"/>
<polygon fill="#0000ff" stroke="#0000ff" points="1124.89,-46.18 1121.39,-36.18 1117.89,-46.18 1124.89,-46.18"/>
<text text-anchor="middle" x="1155.89" y="-57.8" font-family="Times New Roman,serif" font-size="14.00">yes, missing</text>
</g>
<!-- 14 -->
<g id="node15" class="node">
<title>14</title>
<ellipse fill="none" stroke="black" cx="1291.39" cy="-18" rx="69.59" ry="18"/>
<text text-anchor="middle" x="1291.39" y="-14.3" font-family="Times New Roman,serif" font-size="14.00">leaf=&#45;0.1944056</text>
</g>
<!-- 6&#45;&gt;14 -->
<g id="edge14" class="edge">
<title>6&#45;&gt;14</title>
<path fill="none" stroke="#ff0000" d="M1153.83,-88.69C1166.52,-82.64 1181.18,-75.57 1194.39,-69 1213.75,-59.37 1235.12,-48.39 1252.87,-39.18"/>
<polygon fill="#ff0000" stroke="#ff0000" points="1254.53,-42.26 1261.79,-34.54 1251.3,-36.05 1254.53,-42.26"/>
<text text-anchor="middle" x="1230.89" y="-57.8" font-family="Times New Roman,serif" font-size="14.00">no</text>
</g>
</g>
</svg>
